# This file uses centimeters as units for non-parametric coordinates.

v -0.043115 0.875085 0.664037
v 0.043115 0.875086 0.664037
v -0.040787 0.948342 0.666364
v 0.040787 0.948342 0.666364
v -0.070916 0.000000 0.778068
v 0.070916 0.000000 0.778068
v -0.039146 1.000000 0.746298
v 0.039146 1.000000 0.746298
v -0.039146 1.000000 0.668005
v 0.039146 1.000000 0.668005
v -0.070916 0.000000 0.636236
v 0.070916 0.000000 0.636236
v -0.056343 0.458703 0.650809
v 0.056343 0.458704 0.650809
v -0.053811 0.538408 0.653341
v 0.053811 0.538408 0.653341
v -0.019146 1.080000 0.726298
v 0.019146 1.080000 0.726298
v 0.019146 1.080000 0.688005
v -0.019146 1.080000 0.688005
v 0.040787 0.948342 0.747939
v -0.040787 0.948342 0.747939
v 0.043115 0.875085 0.750267
v -0.043115 0.875086 0.750266
v 0.053811 0.538408 0.760963
v -0.053811 0.538408 0.760963
v 0.056343 0.458703 0.763495
v -0.056343 0.458704 0.763495
v 0.035237 0.877251 0.626340
v 0.035237 0.947725 0.626340
v -0.035237 0.947725 0.626340
v -0.035237 0.877251 0.626340
v 0.035237 0.464763 0.626340
v 0.035237 0.535237 0.626340
v -0.035237 0.535237 0.626340
v -0.035237 0.464763 0.626340
v -0.043115 0.875085 -0.664037
v 0.043115 0.875086 -0.664037
v -0.040787 0.948342 -0.666364
v 0.040787 0.948342 -0.666364
v -0.070916 -0.000000 -0.778068
v 0.070916 -0.000000 -0.778068
v -0.039146 1.000000 -0.746298
v 0.039146 1.000000 -0.746298
v -0.039146 1.000000 -0.668005
v 0.039146 1.000000 -0.668005
v -0.070916 -0.000000 -0.636236
v 0.070916 -0.000000 -0.636236
v -0.056343 0.458703 -0.650809
v 0.056343 0.458704 -0.650809
v -0.053811 0.538408 -0.653341
v 0.053811 0.538408 -0.653341
v -0.019146 1.080000 -0.726298
v 0.019146 1.080000 -0.726298
v 0.019146 1.080000 -0.688005
v -0.019146 1.080000 -0.688005
v 0.040787 0.948342 -0.747939
v -0.040787 0.948342 -0.747939
v 0.043115 0.875085 -0.750267
v -0.043115 0.875086 -0.750266
v 0.053811 0.538408 -0.760963
v -0.053811 0.538408 -0.760963
v 0.056343 0.458703 -0.763495
v -0.056343 0.458704 -0.763495
v 0.035237 0.877251 -0.626340
v 0.035237 0.947725 -0.626340
v -0.035237 0.947725 -0.626340
v -0.035237 0.877251 -0.626340
v 0.035237 0.464763 -0.626340
v 0.035237 0.535237 -0.626340
v -0.035237 0.535237 -0.626340
v -0.035237 0.464763 -0.626340
vt 0.009655 0.242390
vt 0.736924 0.242397
vt 0.726067 0.204331
vt 0.020523 0.204322
vt 0.243309 0.201972
vt 0.503524 0.201980
vt 0.375000 0.000000
vt 0.625000 0.000000
vt 0.625000 0.250000
vt 0.375000 0.250000
vt 0.375000 0.250000
vt 0.625000 0.250000
vt 0.625000 0.500000
vt 0.375000 0.500000
vt 0.375000 0.500000
vt 0.625000 0.500000
vt 0.875015 -0.000226
vt 1.083996 0.001113
vt 0.875000 0.250000
vt 0.125000 0.000000
vt 0.125000 0.250000
vt 0.015578 0.237718
vt 0.731000 0.237725
vt 0.708221 0.213174
vt 0.038404 0.213162
vt 0.230432 0.210622
vt 0.516365 0.210632
vt 0.625000 0.237086
vt 0.625420 0.512627
vt 0.873410 0.237077
vt 0.374451 0.512681
vt 0.128311 0.237075
vt 0.375000 0.237086
vt 0.625000 0.218771
vt 0.616938 0.531278
vt 0.867140 0.218762
vt 0.386623 0.531264
vt 0.132421 0.218765
vt 0.375000 0.218771
vt 0.625000 0.134602
vt 0.635697 0.615361
vt 0.878086 0.134610
vt 0.366425 0.615354
vt 0.121914 0.134610
vt 0.375000 0.134602
vt 0.625000 0.114676
vt 0.867573 0.114898
vt 1.086522 0.116287
vt 0.132412 0.114671
vt 0.375000 0.114676
vt 0.493519 0.242397
vt 0.253318 0.242390
vt 0.490648 0.237725
vt 0.256190 0.237718
vt 0.994808 0.204322
vt 0.983940 0.242390
vt 0.978019 0.237718
vt 1.000844 0.213162
vt 0.983940 0.242390
vt 0.736924 0.242397
vt 0.726067 0.204331
vt 0.994808 0.204322
vt 0.243309 0.201972
vt 0.503524 0.201980
vt 0.493519 0.242397
vt 0.253318 0.242390
vt 0.009655 0.242390
vt 0.020523 0.204322
vt 0.375000 0.237086
vt 0.625000 0.237086
vt 0.625000 0.250000
vt 0.375000 0.250000
vt 0.375000 0.250000
vt 0.625000 0.250000
vt 0.625000 0.500000
vt 0.375000 0.500000
vt 0.375000 0.500000
vt 0.625000 0.500000
vt 0.625420 0.512627
vt 0.374451 0.512681
vt 0.873410 0.237077
vt 0.875000 0.250000
vt 0.128311 0.237075
vt 0.125000 0.250000
vt 0.978019 0.237718
vt 0.731000 0.237725
vt 0.708221 0.213174
vt 1.000844 0.213162
vt 0.230432 0.210622
vt 0.516365 0.210632
vt 0.490648 0.237725
vt 0.256190 0.237718
vt 0.015578 0.237718
vt 0.038404 0.213162
vt 0.625000 0.218771
vt 0.867140 0.218762
vt 0.132421 0.218765
vt 0.375000 0.218771
vt 0.625000 0.134602
vt 0.878086 0.134610
vt 0.386623 0.531264
vt 0.616938 0.531278
vt 0.635697 0.615361
vt 0.366425 0.615354
vt 0.121914 0.134610
vt 0.375000 0.134602
vt 0.625000 0.114676
vt 0.867573 0.114898
vt 0.132412 0.114671
vt 0.375000 0.114676
vt 0.625000 0.000000
vt 0.875015 -0.000226
vt 1.086522 0.116287
vt 1.083996 0.001113
vt 0.125000 0.000000
vt 0.375000 0.000000
vn 0.000000 -0.999998 -0.002094
vn 0.000000 -0.999998 -0.002094
vn 0.000000 -1.000000 0.000000
vn 0.000000 -1.000000 0.000000
vn 0.000000 1.000000 0.000000
vn 0.000000 1.000000 0.000000
vn -0.000000 1.000000 -0.000557
vn -0.000000 1.000000 -0.000557
vn 0.999985 0.000602 -0.005471
vn 0.999986 0.000588 -0.005338
vn 1.000000 0.000000 0.000000
vn 1.000000 0.000000 0.000000
vn -0.999986 0.000588 -0.005338
vn -0.999985 0.000602 -0.005471
vn -1.000000 0.000000 0.000000
vn -1.000000 0.000000 0.000000
vn -0.000001 0.031754 0.999496
vn -0.000001 0.031754 0.999496
vn 0.000000 0.039168 0.999233
vn 0.000000 0.039168 0.999233
vn 0.000000 1.000000 0.000000
vn 0.000000 1.000000 0.000000
vn 0.000000 1.000000 0.000000
vn 0.000000 1.000000 0.000000
vn 0.000000 0.039168 -0.999233
vn 0.000000 0.039168 -0.999233
vn 0.000001 0.031753 -0.999496
vn 0.000001 0.031753 -0.999496
vn 0.999496 0.031754 0.000000
vn 0.999496 0.031754 0.000000
vn 0.999233 0.039168 0.000000
vn 0.999233 0.039168 0.000000
vn -0.999496 0.031754 0.000000
vn -0.999496 0.031754 0.000000
vn -0.999233 0.039168 0.000000
vn -0.999233 0.039168 0.000000
vn 0.000000 -0.999962 -0.008754
vn 0.000000 -0.999962 -0.008754
vn 0.000000 -1.000000 0.000000
vn 0.000000 -1.000000 0.000000
vn 0.000000 1.000000 0.000000
vn 0.000000 1.000000 0.000000
vn -0.000000 0.999991 -0.004258
vn -0.000000 0.999991 -0.004258
vn 0.999831 0.000713 -0.018390
vn 0.999847 0.000678 -0.017480
vn 1.000000 0.000000 0.000000
vn 1.000000 0.000000 0.000000
vn -0.999847 0.000678 -0.017480
vn -0.999831 0.000713 -0.018390
vn -1.000000 0.000000 0.000000
vn -1.000000 0.000000 0.000000
vn 0.000000 0.039168 0.999233
vn 0.000000 0.039168 0.999233
vn 0.000000 0.242536 0.970142
vn 0.000000 0.242536 0.970142
vn 0.999233 0.039168 0.000000
vn 0.999233 0.039168 0.000000
vn 0.970142 0.242536 0.000000
vn 0.970142 0.242536 0.000000
vn 0.000000 0.039168 -0.999233
vn 0.000000 0.039168 -0.999233
vn 0.000000 0.242536 -0.970142
vn 0.000000 0.242536 -0.970142
vn -0.999233 0.039168 0.000000
vn -0.999233 0.039168 0.000000
vn -0.970142 0.242536 0.000000
vn -0.970142 0.242536 0.000000
vn 0.999496 0.031754 0.000000
vn 0.999496 0.031754 0.000000
vn -0.999496 0.031754 0.000000
vn -0.999496 0.031754 0.000000
vn -0.000001 0.031754 0.999496
vn -0.000001 0.031754 0.999496
vn 0.999496 0.031754 0.000000
vn 0.999496 0.031754 0.000000
vn 0.000001 0.031753 -0.999496
vn 0.000001 0.031753 -0.999496
vn 0.000001 0.031753 -0.999496
vn 0.000001 0.031753 -0.999496
vn -0.999496 0.031754 -0.000000
vn -0.999496 0.031754 -0.000000
vn -0.000001 0.031754 0.999496
vn -0.000001 0.031754 0.999496
vn 0.999496 0.031754 0.000000
vn 0.999496 0.031754 0.000000
vn -0.999496 0.031754 -0.000000
vn -0.999496 0.031754 -0.000000
vn -0.000000 0.031754 0.999496
vn -0.000000 0.031754 0.999496
vn 0.999496 0.031754 0.000000
vn 0.999496 0.031754 0.000000
vn 0.000000 0.031753 -0.999496
vn 0.000000 0.031753 -0.999496
vn 0.000000 0.031754 -0.999496
vn 0.000000 0.031754 -0.999496
vn -0.999496 0.031754 0.000000
vn -0.999496 0.031754 0.000000
vn 0.000000 0.031754 0.999496
vn 0.000000 0.031754 0.999496
vn -0.000000 1.000000 0.000557
vn -0.000000 1.000000 0.000557
vn -0.000000 0.999991 0.004258
vn -0.000000 0.999991 0.004258
vn 0.000000 -0.999998 0.002094
vn 0.000000 -1.000000 0.000000
vn 0.000000 -1.000000 0.000000
vn 0.000000 -0.999998 0.002094
vn 0.000000 1.000000 0.000000
vn 0.000000 1.000000 0.000000
vn 0.999985 0.000602 0.005471
vn 1.000000 0.000000 0.000000
vn 1.000000 0.000000 0.000000
vn 0.999986 0.000588 0.005338
vn -0.999986 0.000588 0.005338
vn -1.000000 0.000000 -0.000000
vn -1.000000 0.000000 -0.000000
vn -0.999985 0.000602 0.005471
vn -0.000001 0.031754 -0.999496
vn 0.000000 0.039168 -0.999233
vn 0.000000 0.039168 -0.999233
vn -0.000001 0.031754 -0.999496
vn 0.000000 1.000000 0.000000
vn 0.000000 1.000000 0.000000
vn 0.000000 1.000000 0.000000
vn 0.000000 1.000000 0.000000
vn 0.000000 0.039168 0.999233
vn 0.000001 0.031753 0.999496
vn 0.000001 0.031753 0.999496
vn 0.000000 0.039168 0.999233
vn 0.999496 0.031754 0.000000
vn 0.999233 0.039168 0.000000
vn 0.999233 0.039168 0.000000
vn 0.999496 0.031754 0.000000
vn -0.999496 0.031754 -0.000000
vn -0.999233 0.039168 -0.000000
vn -0.999233 0.039168 -0.000000
vn -0.999496 0.031754 -0.000000
vn 0.000000 -0.999962 0.008754
vn 0.000000 -1.000000 0.000000
vn 0.000000 -1.000000 0.000000
vn 0.000000 -0.999962 0.008754
vn 0.000000 1.000000 0.000000
vn 0.000000 1.000000 0.000000
vn 0.999831 0.000713 0.018390
vn 1.000000 0.000000 0.000000
vn 1.000000 0.000000 0.000000
vn 0.999847 0.000678 0.017480
vn -0.999847 0.000678 0.017480
vn -1.000000 0.000000 -0.000000
vn -1.000000 0.000000 -0.000000
vn -0.999831 0.000713 0.018390
vn 0.000000 0.039168 -0.999233
vn 0.000000 0.242536 -0.970143
vn 0.000000 0.242536 -0.970143
vn 0.000000 0.039168 -0.999233
vn 0.999233 0.039168 0.000000
vn 0.970143 0.242536 0.000000
vn 0.970143 0.242536 0.000000
vn 0.999233 0.039168 0.000000
vn 0.000000 0.039168 0.999233
vn 0.000000 0.242536 0.970143
vn 0.000000 0.242536 0.970143
vn 0.000000 0.039168 0.999233
vn -0.999233 0.039168 -0.000000
vn -0.970143 0.242536 -0.000000
vn -0.970143 0.242536 -0.000000
vn -0.999233 0.039168 -0.000000
vn 0.999496 0.031754 -0.000000
vn 0.999496 0.031754 -0.000000
vn -0.999496 0.031754 0.000000
vn -0.999496 0.031754 0.000000
vn -0.000001 0.031754 -0.999496
vn -0.000001 0.031754 -0.999496
vn 0.999496 0.031754 -0.000000
vn 0.999496 0.031754 -0.000000
vn 0.000001 0.031753 0.999496
vn 0.000001 0.031753 0.999496
vn 0.000001 0.031753 0.999496
vn 0.000001 0.031753 0.999496
vn -0.999496 0.031754 0.000000
vn -0.999496 0.031754 0.000000
vn -0.000001 0.031754 -0.999496
vn -0.000001 0.031754 -0.999496
vn 0.999496 0.031754 -0.000000
vn 0.999496 0.031754 -0.000000
vn -0.999496 0.031754 0.000000
vn -0.999496 0.031754 0.000000
vn -0.000000 0.031754 -0.999496
vn -0.000000 0.031754 -0.999496
vn 0.999496 0.031754 0.000000
vn 0.999496 0.031754 0.000000
vn -0.000000 0.031753 0.999496
vn 0.000000 0.031754 0.999496
vn 0.000000 0.031754 0.999496
vn -0.000000 0.031753 0.999496
vn -0.999496 0.031754 -0.000000
vn -0.999496 0.031754 -0.000000
vn 0.000000 0.031754 -0.999496
vn 0.000000 0.031754 -0.999496
f 32/56/1 29/2/2 2/3/3 1/55/4
f 3/5/5 4/6/6 30/51/7 31/52/8
f 29/2/9 30/51/10 4/6/11 2/3/12
f 31/52/13 32/1/14 1/4/15 3/5/16
f 22/33/17 21/28/18 8/9/19 7/10/20
f 17/11/21 18/12/22 19/13/23 20/14/24
f 9/15/25 10/16/26 4/29/27 3/31/28
f 21/28/29 4/30/30 10/19/31 8/9/32
f 3/32/33 22/33/34 7/10/35 9/21/36
f 36/57/37 33/23/38 14/24/39 13/58/40
f 15/26/41 16/27/42 34/53/43 35/54/44
f 33/23/45 34/53/46 16/27/47 14/24/48
f 35/54/49 36/22/50 13/25/51 15/26/52
f 7/10/53 8/9/54 18/12/55 17/11/56
f 8/9/57 10/16/58 19/13/59 18/12/60
f 10/16/61 9/15/62 20/14/63 19/13/64
f 9/15/65 7/10/66 17/11/67 20/14/68
f 23/34/69 2/36/70 4/30/30 21/28/29
f 1/38/71 24/39/72 22/33/34 3/32/33
f 24/39/73 23/34/74 21/28/18 22/33/17
f 25/40/75 16/42/76 2/36/70 23/34/69
f 1/37/77 2/35/78 16/41/79 15/43/80
f 15/44/81 26/45/82 24/39/72 1/38/71
f 26/45/83 25/40/84 23/34/74 24/39/73
f 27/46/85 14/47/86 16/42/76 25/40/75
f 13/49/87 28/50/88 26/45/82 15/44/81
f 28/50/89 27/46/90 25/40/84 26/45/83
f 6/8/91 12/17/92 14/47/86 27/46/85
f 13/48/93 14/47/94 12/17/95 11/18/96
f 11/20/97 5/7/98 28/50/88 13/49/87
f 5/7/99 6/8/100 27/46/90 28/50/89
f 31/52/8 30/51/7 66/65/101 67/66/102
f 35/54/44 34/53/43 70/91/103 71/92/104
f 68/59/105 37/62/106 38/61/107 65/60/108
f 39/63/109 67/66/102 66/65/101 40/64/110
f 65/60/111 38/61/112 40/64/113 66/65/114
f 67/66/115 39/63/116 37/68/117 68/67/118
f 58/69/119 43/72/120 44/71/121 57/70/122
f 53/73/123 56/76/124 55/75/125 54/74/126
f 45/77/127 39/80/128 40/79/129 46/78/130
f 57/70/131 44/71/132 46/82/133 40/81/134
f 39/83/135 45/84/136 43/72/137 58/69/138
f 72/85/139 49/88/140 50/87/141 69/86/142
f 51/89/143 71/92/104 70/91/103 52/90/144
f 69/86/145 50/87/146 52/90/147 70/91/148
f 71/92/149 51/89/150 49/94/151 72/93/152
f 43/72/153 53/73/154 54/74/155 44/71/156
f 44/71/157 54/74/158 55/75/159 46/78/160
f 46/78/161 55/75/162 56/76/163 45/77/164
f 45/77/165 56/76/166 53/73/167 43/72/168
f 59/95/169 57/70/131 40/81/134 38/96/170
f 37/97/171 39/83/135 58/69/138 60/98/172
f 60/98/173 58/69/119 57/70/122 59/95/174
f 61/99/175 59/95/169 38/96/170 52/100/176
f 37/101/177 51/104/178 52/103/179 38/102/180
f 51/105/181 37/97/171 60/98/172 62/106/182
f 62/106/183 60/98/173 59/95/174 61/99/184
f 63/107/185 61/99/175 52/100/176 50/108/186
f 49/109/187 51/105/181 62/106/182 64/110/188
f 64/110/189 62/106/183 61/99/184 63/107/190
f 42/111/191 63/107/185 50/108/186 48/112/192
f 49/113/193 47/114/194 48/112/195 50/108/196
f 47/115/197 49/109/187 64/110/188 41/116/198
f 41/116/199 64/110/189 63/107/190 42/111/200
f 29/2/9 65/60/111 66/65/114 30/51/10
f 31/52/13 67/66/115 68/67/118 32/1/14
f 32/56/1 68/59/105 65/60/108 29/2/2
f 33/23/45 69/86/145 70/91/148 34/53/46
f 35/54/49 71/92/149 72/93/152 36/22/50
f 36/57/37 72/85/139 69/86/142 33/23/38
