# This file uses centimeters as units for non-parametric coordinates.

mtllib flower.mtl
v -0.000000 0.321375 -0.086112
v 0.145833 0.457772 -0.157468
v 0.191563 0.412276 -0.087959
v 0.211765 0.320058 -0.096923
v 0.186236 0.273336 -0.175395
v 0.140505 0.318832 -0.244903
v 0.120304 0.411049 -0.235940
v 0.166034 0.365554 -0.166431
vt 0.500000 0.312500
vt 0.375000 0.688440
vt 0.416667 0.688440
vt 0.458333 0.688440
vt 0.500000 0.688440
vt 0.541667 0.688440
vt 0.583333 0.688440
vt 0.625000 0.688440
vt 0.578125 0.708434
vt 0.421875 0.708434
vt 0.343750 0.843750
vt 0.421875 0.979066
vt 0.578125 0.979066
vt 0.656250 0.843750
vt 0.500000 0.837500
vn -0.875438 -0.232940 0.423493
vn -0.150720 0.336510 0.929540
vn -0.582049 0.765623 0.273936
vn 0.039821 -0.533287 0.844996
vn -0.200967 -0.973971 0.104848
vn -0.632296 -0.544857 -0.550756
vn -0.822837 0.324940 -0.466213
vn 0.875438 0.232940 -0.423493
vn 0.875438 0.232940 -0.423493
vn 0.875438 0.232940 -0.423493
vn 0.875438 0.232940 -0.423493
vn 0.875438 0.232940 -0.423493
vn 0.875439 0.232940 -0.423493
vn 0.875439 0.232940 -0.423493
usemtl lambert11SG
f 1/1/1 3/3/2 2/2/3
f 1/1/1 4/4/4 3/3/2
f 1/1/1 5/5/5 4/4/4
f 1/1/1 6/6/6 5/5/5
f 1/1/1 7/7/7 6/6/6
f 1/1/1 2/8/3 7/7/7
f 2/13/8 3/12/9 8/15/10
f 3/12/9 4/11/11 8/15/10
f 4/11/11 5/10/12 8/15/10
f 5/10/12 6/9/13 8/15/10
f 6/9/13 7/14/14 8/15/10
f 7/14/14 2/13/8 8/15/10
v -0.000000 0.016829 0.062808
v 0.065023 -0.000000 0.000000
v 0.000000 -0.016829 -0.062808
v -0.065023 -0.000000 0.000000
v -0.000000 0.321375 -0.086112
v 0.000000 -0.000000 0.000000
vt 0.500000 0.000000
vt 0.343750 0.156250
vt 0.500000 0.312500
vt 0.656250 0.156250
vt 0.375000 0.312500
vt 0.437500 0.312500
vt 0.500000 0.312500
vt 0.562500 0.312500
vt 0.625000 0.312500
vt 0.500000 0.688440
vt 0.500000 0.150000
vn -0.000000 0.439284 0.898348
vn 0.981433 0.185271 -0.049643
vn -0.000000 0.965926 -0.258819
vn -0.000000 -0.068743 -0.997634
vn -0.981433 0.185271 -0.049643
vn 0.000000 -0.965926 0.258819
vn 0.000000 -0.965926 0.258819
vn 0.000000 -0.965926 0.258819
vn 0.000000 -0.965926 0.258819
vn 0.000000 -0.965926 0.258819
usemtl lambert12SG
f 9/20/15 10/21/16 13/25/17
f 10/21/16 11/22/18 13/25/17
f 11/22/18 12/23/19 13/25/17
f 12/23/19 9/24/15 13/25/17
f 10/17/20 9/16/21 14/26/22
f 11/18/23 10/17/20 14/26/22
f 12/19/24 11/18/23 14/26/22
f 9/16/21 12/19/24 14/26/22
v -0.000000 0.321375 -0.086112
v -0.086120 0.451078 0.057844
v 0.006732 0.468139 0.066786
v 0.054442 0.509202 -0.004137
v 0.009299 0.533205 -0.084003
v -0.083553 0.516144 -0.092946
v -0.131263 0.475080 -0.022022
v -0.038410 0.492141 -0.013080
vt 0.500000 0.312500
vt 0.375000 0.688440
vt 0.416667 0.688440
vt 0.458333 0.688440
vt 0.500000 0.688440
vt 0.541667 0.688440
vt 0.583333 0.688440
vt 0.625000 0.688440
vt 0.578125 0.708434
vt 0.421875 0.708434
vt 0.343750 0.843750
vt 0.421875 0.979066
vt 0.578125 0.979066
vt 0.656250 0.843750
vt 0.500000 0.837500
vn 0.202524 -0.900390 -0.385074
vn 0.516358 -0.629060 0.581084
vn -0.359423 -0.789977 0.496741
vn 0.966352 -0.241749 -0.087867
vn 0.540566 -0.015356 -0.841162
vn -0.335215 -0.176273 -0.925505
vn -0.785209 -0.563584 -0.256553
vn -0.202524 0.900390 0.385074
vn -0.202524 0.900390 0.385074
vn -0.202524 0.900390 0.385074
vn -0.202524 0.900390 0.385074
vn -0.202524 0.900390 0.385074
vn -0.202524 0.900390 0.385074
vn -0.202524 0.900390 0.385074
usemtl lambert11SG
f 15/27/25 17/29/26 16/28/27
f 15/27/25 18/30/28 17/29/26
f 15/27/25 19/31/29 18/30/28
f 15/27/25 20/32/30 19/31/29
f 15/27/25 21/33/31 20/32/30
f 15/27/25 16/34/27 21/33/31
f 16/39/32 17/38/33 22/41/34
f 17/38/33 18/37/35 22/41/34
f 18/37/35 19/36/36 22/41/34
f 19/36/36 20/35/37 22/41/34
f 20/35/37 21/40/38 22/41/34
f 21/40/38 16/39/32 22/41/34
v -0.000000 0.321375 -0.086112
v -0.020656 0.312864 -0.296976
v 0.053465 0.370840 -0.285254
v 0.134561 0.337427 -0.249203
v 0.141535 0.246037 -0.224874
v 0.067414 0.188061 -0.236597
v -0.013681 0.221475 -0.272648
v 0.060440 0.279451 -0.260925
vt 0.500000 0.312500
vt 0.375000 0.688440
vt 0.416667 0.688440
vt 0.458333 0.688440
vt 0.500000 0.688440
vt 0.541667 0.688440
vt 0.583333 0.688440
vt 0.625000 0.688440
vt 0.578125 0.708434
vt 0.421875 0.708434
vt 0.343750 0.843750
vt 0.421875 0.979066
vt 0.578125 0.979066
vt 0.656250 0.843750
vt 0.500000 0.837500
vn -0.318676 0.221052 0.921728
vn -0.208297 0.960842 0.182742
vn -0.907405 0.414012 0.072177
vn 0.556592 0.645687 0.522775
vn 0.622373 -0.216298 0.752242
vn -0.076736 -0.763128 0.641676
vn -0.841625 -0.447973 0.301643
vn 0.318676 -0.221052 -0.921728
vn 0.318676 -0.221052 -0.921728
vn 0.318676 -0.221052 -0.921728
vn 0.318676 -0.221052 -0.921728
vn 0.318676 -0.221052 -0.921728
vn 0.318676 -0.221052 -0.921728
vn 0.318676 -0.221052 -0.921728
f 23/42/39 25/44/40 24/43/41
f 23/42/39 26/45/42 25/44/40
f 23/42/39 27/46/43 26/45/42
f 23/42/39 28/47/44 27/46/43
f 23/42/39 29/48/45 28/47/44
f 23/42/39 24/49/41 29/48/45
f 24/54/46 25/53/47 30/56/48
f 25/53/47 26/52/49 30/56/48
f 26/52/49 27/51/50 30/56/48
f 27/51/50 28/50/51 30/56/48
f 28/50/51 29/55/52 30/56/48
f 29/55/52 24/54/46 30/56/48
v -0.000000 0.321375 -0.086112
v -0.156627 0.358717 -0.224085
v -0.079165 0.361326 -0.278725
v -0.028281 0.282524 -0.292640
v -0.054858 0.201113 -0.251915
v -0.132319 0.198504 -0.197275
v -0.183204 0.277306 -0.183360
v -0.105742 0.279915 -0.238000
vt 0.500000 0.312500
vt 0.375000 0.688440
vt 0.416667 0.688440
vt 0.458333 0.688440
vt 0.500000 0.688440
vt 0.541667 0.688440
vt 0.583333 0.688440
vt 0.625000 0.688440
vt 0.578125 0.708434
vt 0.421875 0.708434
vt 0.343750 0.843750
vt 0.421875 0.979066
vt 0.578125 0.979066
vt 0.656250 0.843750
vt 0.500000 0.837500
vn 0.557541 0.218605 0.800850
vn 0.500014 0.865628 -0.025966
vn -0.230601 0.841021 0.489395
vn 0.979954 0.122371 -0.157210
vn 0.729280 -0.645495 0.226907
vn -0.001334 -0.670102 0.742268
vn -0.481275 0.073155 0.873512
vn -0.557541 -0.218605 -0.800850
vn -0.557541 -0.218605 -0.800850
vn -0.557541 -0.218605 -0.800850
vn -0.557541 -0.218605 -0.800850
vn -0.557541 -0.218605 -0.800850
vn -0.557541 -0.218605 -0.800850
vn -0.557541 -0.218605 -0.800850
f 31/57/53 33/59/54 32/58/55
f 31/57/53 34/60/56 33/59/54
f 31/57/53 35/61/57 34/60/56
f 31/57/53 36/62/58 35/61/57
f 31/57/53 37/63/59 36/62/58
f 31/57/53 32/64/55 37/63/59
f 32/69/60 33/68/61 38/71/62
f 33/68/61 34/67/63 38/71/62
f 34/67/63 35/66/64 38/71/62
f 35/66/64 36/65/65 38/71/62
f 36/65/65 37/70/66 38/71/62
f 37/70/66 32/69/60 38/71/62
v -0.000000 0.321375 -0.086112
v 0.043703 0.515904 -0.013921
v 0.113210 0.463312 0.023433
v 0.178117 0.423470 -0.033067
v 0.173516 0.436220 -0.126923
v 0.104009 0.488812 -0.164277
v 0.039102 0.528654 -0.107777
v 0.108610 0.476062 -0.070422
vt 0.500000 0.312500
vt 0.375000 0.688440
vt 0.416667 0.688440
vt 0.458333 0.688440
vt 0.500000 0.688440
vt 0.541667 0.688440
vt 0.583333 0.688440
vt 0.625000 0.688440
vt 0.578125 0.708434
vt 0.421875 0.708434
vt 0.343750 0.843750
vt 0.421875 0.979066
vt 0.578125 0.979066
vt 0.656250 0.843750
vt 0.500000 0.837500
vn -0.572659 -0.815609 -0.082729
vn -0.212708 -0.485011 0.848245
vn -0.868301 0.011035 0.495915
vn 0.399492 -0.860797 0.315332
vn 0.356099 -0.740537 -0.569911
vn -0.299494 -0.244492 -0.922240
vn -0.911694 0.131294 -0.389327
vn 0.572659 0.815609 0.082729
vn 0.572659 0.815609 0.082729
vn 0.572659 0.815609 0.082729
vn 0.572659 0.815609 0.082729
vn 0.572659 0.815609 0.082729
vn 0.572659 0.815609 0.082729
vn 0.572659 0.815609 0.082729
f 39/72/67 41/74/68 40/73/69
f 39/72/67 42/75/70 41/74/68
f 39/72/67 43/76/71 42/75/70
f 39/72/67 44/77/72 43/76/71
f 39/72/67 45/78/73 44/77/72
f 39/72/67 40/79/69 45/78/73
f 40/84/74 41/83/75 46/86/76
f 41/83/75 42/82/77 46/86/76
f 42/82/77 43/81/78 46/86/76
f 43/81/78 44/80/79 46/86/76
f 44/80/79 45/85/80 46/86/76
f 45/85/80 40/84/74 46/86/76
v -0.004039 0.188607 0.164018
v 0.015920 0.157355 0.203401
v -0.034079 0.140577 0.215427
v -0.054038 0.171829 0.176044
v -0.000000 0.016829 0.062808
v -0.019059 0.164592 0.189722
vt 0.500000 0.000000
vt 0.343750 0.156250
vt 0.500000 0.312500
vt 0.656250 0.156250
vt 0.375000 0.312500
vt 0.437500 0.312500
vt 0.500000 0.312500
vt 0.562500 0.312500
vt 0.625000 0.312500
vt 0.500000 0.688440
vt 0.500000 0.150000
vn 0.404073 0.471380 -0.783917
vn 0.916201 -0.330500 0.226594
vn 0.097381 -0.754989 -0.648466
vn -0.366716 -0.761003 0.535158
vn -0.878844 0.040877 -0.475354
vn -0.097381 0.754989 0.648466
vn -0.097381 0.754989 0.648466
vn -0.097381 0.754989 0.648466
vn -0.097381 0.754989 0.648466
vn -0.097381 0.754989 0.648466
usemtl lambert12SG
f 47/91/81 48/92/82 51/96/83
f 48/92/82 49/93/84 51/96/83
f 49/93/84 50/94/85 51/96/83
f 50/94/85 47/95/81 51/96/83
f 48/88/86 47/87/87 52/97/88
f 49/89/89 48/88/86 52/97/88
f 50/90/90 49/89/89 52/97/88
f 47/87/87 50/90/90 52/97/88
v -0.000000 0.321375 -0.086112
v -0.194190 0.397467 -0.047862
v -0.142579 0.476114 -0.059844
v -0.105260 0.495857 -0.144756
v -0.119552 0.436954 -0.217686
v -0.171163 0.358308 -0.205703
v -0.208482 0.338564 -0.120791
v -0.156871 0.417211 -0.132774
vt 0.500000 0.312500
vt 0.375000 0.688440
vt 0.416667 0.688440
vt 0.458333 0.688440
vt 0.500000 0.688440
vt 0.541667 0.688440
vt 0.583333 0.688440
vt 0.625000 0.688440
vt 0.578125 0.708434
vt 0.421875 0.708434
vt 0.343750 0.843750
vt 0.421875 0.979066
vt 0.578125 0.979066
vt 0.656250 0.843750
vt 0.500000 0.837500
vn 0.827123 -0.505308 0.246030
vn 0.504704 0.329594 0.797898
vn 0.017909 -0.412199 0.910918
vn 0.856696 0.515812 -0.002991
vn 0.721893 -0.039762 -0.690861
vn 0.235097 -0.781555 -0.577842
vn -0.116895 -0.967773 0.223047
vn -0.827123 0.505308 -0.246030
vn -0.827123 0.505308 -0.246030
vn -0.827123 0.505308 -0.246030
vn -0.827123 0.505308 -0.246030
vn -0.827123 0.505308 -0.246030
vn -0.827123 0.505308 -0.246030
vn -0.827123 0.505308 -0.246030
usemtl lambert11SG
f 53/98/91 55/100/92 54/99/93
f 53/98/91 56/101/94 55/100/92
f 53/98/91 57/102/95 56/101/94
f 53/98/91 58/103/96 57/102/95
f 53/98/91 59/104/97 58/103/96
f 53/98/91 54/105/93 59/104/97
f 54/110/98 55/109/99 60/112/100
f 55/109/99 56/108/101 60/112/100
f 56/108/101 57/107/102 60/112/100
f 57/107/102 58/106/103 60/112/100
f 58/106/103 59/111/104 60/112/100
f 59/111/104 54/110/98 60/112/100
v -0.020740 0.061356 -0.245083
v -0.039192 0.103629 -0.216824
v -0.087778 0.080106 -0.213360
v -0.069327 0.037832 -0.241619
v 0.000000 -0.016829 -0.062808
v -0.054259 0.070731 -0.229221
vt 0.500000 0.000000
vt 0.343750 0.156250
vt 0.500000 0.312500
vt 0.656250 0.156250
vt 0.375000 0.312500
vt 0.437500 0.312500
vt 0.500000 0.312500
vt 0.562500 0.312500
vt 0.625000 0.312500
vt 0.500000 0.688440
vt 0.500000 0.150000
vn 0.913239 -0.326357 -0.243899
vn 0.439789 0.758320 0.481183
vn 0.277235 -0.447386 0.850286
vn -0.806888 0.154734 0.570079
vn -0.333438 -0.929943 -0.155003
vn -0.277236 0.447386 -0.850286
vn -0.277236 0.447386 -0.850286
vn -0.277236 0.447386 -0.850286
vn -0.277236 0.447386 -0.850286
vn -0.277236 0.447386 -0.850286
usemtl lambert12SG
f 61/117/105 62/118/106 65/122/107
f 62/118/106 63/119/108 65/122/107
f 63/119/108 64/120/109 65/122/107
f 64/120/109 61/121/105 65/122/107
f 62/114/110 61/113/111 66/123/112
f 63/115/113 62/114/110 66/123/112
f 64/116/114 63/115/113 66/123/112
f 61/113/111 64/116/114 66/123/112
v -0.159531 0.170483 -0.042087
v -0.185873 0.158586 0.003636
v -0.218409 0.125196 -0.023796
v -0.192067 0.137092 -0.069520
v -0.065023 0.000000 0.000000
v -0.188970 0.147839 -0.032942
vt 0.500000 0.000000
vt 0.343750 0.156250
vt 0.500000 0.312500
vt 0.656250 0.156250
vt 0.375000 0.312500
vt 0.437500 0.312500
vt 0.500000 0.312500
vt 0.562500 0.312500
vt 0.625000 0.312500
vt 0.500000 0.688440
vt 0.500000 0.150000
vn 0.876838 0.436116 -0.202380
vn 0.200940 0.130866 0.970823
vn 0.633302 -0.755380 0.168315
vn -0.633896 -0.725889 0.266948
vn 0.042003 -0.420639 -0.906255
vn -0.633302 0.755380 -0.168315
vn -0.633302 0.755380 -0.168315
vn -0.633302 0.755380 -0.168315
vn -0.633302 0.755380 -0.168315
vn -0.633302 0.755380 -0.168315
f 67/128/115 68/129/116 71/133/117
f 68/129/116 69/130/118 71/133/117
f 69/130/118 70/131/119 71/133/117
f 70/131/119 67/132/115 71/133/117
f 68/125/120 67/124/121 72/134/122
f 69/126/123 68/125/120 72/134/122
f 70/127/124 69/126/123 72/134/122
f 67/124/121 70/127/124 72/134/122
v -0.000000 0.321375 -0.086112
v -0.031098 0.435440 -0.129682
v 0.024953 0.438646 -0.124857
v 0.057929 0.407153 -0.157964
v 0.034854 0.372455 -0.195896
v -0.021197 0.369249 -0.200720
v -0.054173 0.400742 -0.167613
v 0.001878 0.403948 -0.162789
vt 0.500000 0.312500
vt 0.375000 0.688440
vt 0.416667 0.688440
vt 0.458333 0.688440
vt 0.500000 0.688440
vt 0.541667 0.688440
vt 0.583333 0.688440
vt 0.625000 0.688440
vt 0.578125 0.708434
vt 0.421875 0.708434
vt 0.343750 0.843750
vt 0.421875 0.979066
vt 0.578125 0.979066
vt 0.656250 0.843750
vt 0.500000 0.837500
vn -0.016662 -0.732684 0.680365
vn 0.358818 0.223097 0.906354
vn -0.530870 0.172215 0.829770
vn 0.882237 -0.276784 0.380852
vn 0.515967 -0.827547 -0.221233
vn -0.373722 -0.878429 -0.297817
vn -0.897140 -0.378548 0.227685
vn 0.016662 0.732684 -0.680365
vn 0.016662 0.732684 -0.680365
vn 0.016662 0.732684 -0.680365
vn 0.016662 0.732684 -0.680365
vn 0.016662 0.732684 -0.680365
vn 0.016662 0.732684 -0.680365
vn 0.016662 0.732684 -0.680365
usemtl lambert13SG
f 73/135/125 75/137/126 74/136/127
f 73/135/125 76/138/128 75/137/126
f 73/135/125 77/139/129 76/138/128
f 73/135/125 78/140/130 77/139/129
f 73/135/125 79/141/131 78/140/130
f 73/135/125 74/142/127 79/141/131
f 74/147/132 75/146/133 80/149/134
f 75/146/133 76/145/135 80/149/134
f 76/145/135 77/144/136 80/149/134
f 77/144/136 78/143/137 80/149/134
f 78/143/137 79/148/138 80/149/134
f 79/148/138 74/147/132 80/149/134
v 0.204712 0.136145 -0.041460
v 0.170156 0.148779 -0.081113
v 0.190008 0.108486 -0.111252
v 0.224564 0.095852 -0.071600
v 0.065023 0.000000 0.000000
v 0.197360 0.122316 -0.076356
vt 0.500000 0.000000
vt 0.343750 0.156250
vt 0.500000 0.312500
vt 0.656250 0.156250
vt 0.375000 0.312500
vt 0.437500 0.312500
vt 0.500000 0.312500
vt 0.562500 0.312500
vt 0.625000 0.312500
vt 0.500000 0.688440
vt 0.500000 0.150000
vn 0.058946 0.234978 0.970212
vn -0.827720 0.559152 -0.047214
vn -0.676169 -0.624969 0.390139
vn -0.318333 -0.474724 -0.820550
vn 0.568333 -0.798898 0.196877
vn 0.676170 0.624969 -0.390139
vn 0.676170 0.624969 -0.390139
vn 0.676170 0.624969 -0.390139
vn 0.676170 0.624969 -0.390139
vn 0.676170 0.624969 -0.390139
usemtl lambert12SG
f 81/154/139 82/155/140 85/159/141
f 82/155/140 83/156/142 85/159/141
f 83/156/142 84/157/143 85/159/141
f 84/157/143 81/158/139 85/159/141
f 82/151/144 81/150/145 86/160/146
f 83/152/147 82/151/144 86/160/146
f 84/153/148 83/152/147 86/160/146
f 81/150/145 84/153/148 86/160/146
