# This file uses centimeters as units for non-parametric coordinates.

v -0.108509 0.016258 0.037225
v -0.055241 0.016258 0.010184
v 0.055241 0.016258 0.110733
v 0.165722 0.016258 0.074620
v -0.136296 0.016258 0.012408
v -0.055241 -0.000000 0.003395
v 0.055241 -0.000000 0.036911
v 0.225451 0.016258 0.024873
v -0.136296 0.016258 -0.012408
v -0.055241 0.000000 -0.003395
v 0.055241 0.000000 -0.036911
v 0.225451 0.016258 -0.024873
v -0.108509 0.016258 -0.037225
v -0.055241 0.016258 -0.010184
v 0.055241 0.016258 -0.110733
v 0.165722 0.016258 -0.074620
v -0.055241 0.032516 0.003395
v 0.055241 0.032516 0.036911
v -0.055241 0.032516 -0.003395
v 0.055241 0.032516 -0.036911
vt 0.000000 0.000000
vt 0.333333 0.000000
vt 0.666667 0.000000
vt 1.000000 0.000000
vt 0.000000 0.333333
vt 0.333333 0.333333
vt 0.666667 0.333333
vt 1.000000 0.333333
vt 0.000000 0.666667
vt 0.333333 0.666667
vt 0.666667 0.666667
vt 1.000000 0.666667
vt 0.000000 1.000000
vt 0.333333 1.000000
vt 0.666667 1.000000
vt 1.000000 1.000000
vt 0.000000 0.000000
vt 0.333333 0.000000
vt 0.333333 0.333333
vt 0.000000 0.333333
vt 0.666667 0.000000
vt 0.666667 0.333333
vt 1.000000 0.000000
vt 1.000000 0.333333
vt 0.333333 0.666667
vt 0.000000 0.666667
vt 0.666667 0.666667
vt 1.000000 0.666667
vt 0.333333 1.000000
vt 0.000000 1.000000
vt 0.666667 1.000000
vt 1.000000 1.000000
vn 0.012317 0.893546 0.448803
vn 0.012317 0.893546 0.448803
vn -0.108094 0.972984 0.204004
vn -0.114762 0.975169 0.189406
vn -0.221336 0.904395 0.364800
vn -0.006520 0.972551 0.232598
vn 0.013922 0.991586 0.128698
vn -0.107219 0.978405 0.176715
vn 0.086148 0.981536 0.170781
vn 0.093249 0.994845 0.039862
vn -0.108094 0.972984 -0.204004
vn -0.114762 0.975169 -0.189406
vn 0.013922 0.991586 -0.128698
vn -0.107219 0.978405 -0.176715
vn 0.093249 0.994845 -0.039862
vn 0.012317 0.893546 -0.448802
vn 0.012317 0.893546 -0.448802
vn -0.006520 0.972551 -0.232598
vn -0.221336 0.904395 -0.364800
vn 0.086148 0.981536 -0.170781
vn 0.012317 -0.893546 0.448803
vn -0.114762 -0.975169 0.189406
vn -0.108094 -0.972984 0.204004
vn 0.012317 -0.893546 0.448803
vn -0.221336 -0.904395 0.364800
vn -0.107219 -0.978405 0.176715
vn 0.013922 -0.991586 0.128698
vn -0.006520 -0.972551 0.232598
vn 0.093249 -0.994845 0.039862
vn 0.086148 -0.981536 0.170781
vn -0.114762 -0.975169 -0.189406
vn -0.108094 -0.972984 -0.204004
vn -0.107219 -0.978405 -0.176715
vn 0.013922 -0.991586 -0.128698
vn 0.093249 -0.994845 -0.039862
vn 0.012317 -0.893546 -0.448802
vn 0.012317 -0.893546 -0.448802
vn -0.221336 -0.904395 -0.364800
vn -0.006520 -0.972551 -0.232598
vn 0.086148 -0.981536 -0.170781
f 1/1/1 2/2/2 17/6/3 5/5/4
f 2/2/5 3/3/6 18/7/7 17/6/8
f 3/3/6 4/4/9 8/8/10 18/7/7
f 5/5/4 17/6/3 19/10/11 9/9/12
f 17/6/8 18/7/7 20/11/13 19/10/14
f 18/7/7 8/8/10 12/12/15 20/11/13
f 9/9/12 19/10/11 14/14/16 13/13/17
f 19/10/14 20/11/13 15/15/18 14/14/19
f 20/11/13 12/12/15 16/16/20 15/15/18
f 1/17/21 5/20/22 6/19/23 2/18/24
f 2/18/25 6/19/26 7/22/27 3/21/28
f 3/21/28 7/22/27 8/24/29 4/23/30
f 5/20/22 9/26/31 10/25/32 6/19/23
f 6/19/26 10/25/33 11/27/34 7/22/27
f 7/22/27 11/27/34 12/28/35 8/24/29
f 9/26/31 13/30/36 14/29/37 10/25/32
f 10/25/33 14/29/38 15/31/39 11/27/34
f 11/27/34 15/31/39 16/32/40 12/28/35
