# This file uses centimeters as units for non-parametric coordinates.

mtllib potted_plant.mtl
v 0.012647 0.263575 -0.056315
v 0.037118 0.263575 -0.029632
v 0.047990 0.263575 -0.064165
v 0.156226 0.485029 -0.163427
v 0.021634 0.337498 -0.059815
v 0.041547 0.338619 -0.038509
v 0.049391 0.327377 -0.065450
v 0.065066 0.442736 -0.091289
v 0.076787 0.443214 -0.079161
v 0.077761 0.426803 -0.091467
v -0.025701 0.263575 -0.057865
v 0.009313 0.263575 -0.067071
v -0.016167 0.263575 -0.092791
v -0.053512 0.418208 -0.234824
v -0.024608 0.315193 -0.067447
v 0.003525 0.315976 -0.075129
v -0.016650 0.308126 -0.094629
v -0.032200 0.388677 -0.120544
v -0.016006 0.389010 -0.125258
v -0.026439 0.377551 -0.131858
v -0.026292 0.263575 0.025684
v -0.045096 0.263575 -0.005254
v -0.054967 0.263575 0.021929
v -0.145242 0.370029 0.076799
v -0.033633 0.299110 0.026057
v -0.048948 0.299649 0.001240
v -0.056136 0.294245 0.022639
v -0.069584 0.349698 0.040700
v -0.078612 0.349928 0.026457
v -0.079798 0.342039 0.037021
v 0.036042 0.263575 0.031611
v 0.001118 0.263575 0.041153
v 0.026844 0.263575 0.066627
v 0.065552 0.431915 0.208295
v 0.035041 0.319768 0.041203
v 0.006984 0.320621 0.049155
v 0.027345 0.312075 0.068460
v 0.043144 0.399766 0.094224
v 0.026995 0.400129 0.099094
v 0.037491 0.387654 0.105593
v 0.124056 0.000000 -0.071624
v 0.071624 0.000000 -0.124056
v 0.000000 0.000000 -0.143247
v -0.071624 0.000000 -0.124056
v -0.124056 0.000000 -0.071624
v -0.143247 0.000000 0.000000
v -0.124056 0.000000 0.071624
v -0.071624 0.000000 0.124056
v 0.000000 0.000000 0.143247
v 0.071624 0.000000 0.124056
v 0.124056 0.000000 0.071624
v 0.143247 0.000000 0.000000
v 0.124056 0.286495 -0.071624
v 0.071624 0.286495 -0.124056
v 0.000000 0.286495 -0.143247
v -0.071624 0.286495 -0.124056
v -0.124056 0.286495 -0.071624
v -0.143247 0.286495 0.000000
v -0.124056 0.286495 0.071624
v -0.071624 0.286495 0.124056
v 0.000000 0.286495 0.143247
v 0.071624 0.286495 0.124056
v 0.124056 0.286495 0.071624
v 0.143247 0.286495 0.000000
v 0.000000 0.000000 0.000000
v 0.124056 0.229196 -0.071624
v 0.071624 0.229196 -0.124056
v 0.000000 0.229196 -0.143247
v -0.071624 0.229196 -0.124056
v -0.124056 0.229196 -0.071624
v -0.143247 0.229196 0.000000
v -0.124056 0.229196 0.071624
v -0.071624 0.229196 0.124056
v 0.000000 0.229196 0.143247
v 0.071624 0.229196 0.124056
v 0.124056 0.229196 0.071624
v 0.143247 0.229196 0.000000
v 0.175388 0.045839 -0.101260
v 0.101260 0.045839 -0.175388
v 0.000000 0.045839 -0.202520
v -0.101260 0.045839 -0.175388
v -0.175388 0.045839 -0.101260
v -0.202520 0.045839 0.000000
v -0.175388 0.045839 0.101260
v -0.101260 0.045839 0.175388
v 0.000000 0.045839 0.202520
v 0.101260 0.045839 0.175388
v 0.175388 0.045839 0.101260
v 0.202520 0.045839 0.000000
v 0.090664 0.286495 -0.052345
v 0.052345 0.286495 -0.090664
v 0.000000 0.286495 -0.104689
v -0.052345 0.286495 -0.090664
v -0.090664 0.286495 -0.052345
v -0.104689 0.286495 0.000000
v -0.090664 0.286495 0.052345
v -0.052345 0.286495 0.090664
v 0.000000 0.286495 0.104689
v 0.052345 0.286495 0.090664
v 0.090664 0.286495 0.052345
v 0.104689 0.286495 0.000000
v 0.090664 0.263575 -0.052345
v 0.052345 0.263575 -0.090664
v 0.000000 0.263575 0.000000
v 0.000000 0.263575 -0.104689
v -0.052345 0.263575 -0.090664
v -0.090664 0.263575 -0.052345
v -0.104689 0.263575 0.000000
v -0.090664 0.263575 0.052345
v -0.052345 0.263575 0.090664
v 0.000000 0.263575 0.104689
v 0.052345 0.263575 0.090664
v 0.090664 0.263575 0.052345
v 0.104689 0.263575 0.000000
v -0.010451 0.263575 -0.018102
v -0.010451 0.263575 0.018102
v 0.020903 0.263575 0.000000
v 0.228298 0.381164 0.000000
v 0.002400 0.314807 -0.014608
v 0.002808 0.315570 0.014553
v 0.026107 0.307793 0.000000
v 0.080377 0.379660 -0.008449
v 0.081004 0.379893 0.008412
v 0.087255 0.369336 0.000000
vt 0.250000 0.500000
vt 0.416667 0.500000
vt 0.583333 0.500000
vt 0.750000 0.500000
vt 0.500000 1.000000
vt 0.701747 0.596505
vt 0.298253 0.596505
vt 0.433004 0.598022
vt 0.567123 0.597265
vt 0.616685 0.766630
vt 0.383315 0.766630
vt 0.461277 0.767664
vt 0.538809 0.767148
vt 0.250000 0.500000
vt 0.416667 0.500000
vt 0.433004 0.598022
vt 0.298253 0.596505
vt 0.583333 0.500000
vt 0.567123 0.597265
vt 0.750000 0.500000
vt 0.701747 0.596505
vt 0.461277 0.767664
vt 0.383315 0.766630
vt 0.538809 0.767148
vt 0.616685 0.766630
vt 0.500000 1.000000
vt 0.250000 0.500000
vt 0.416667 0.500000
vt 0.433004 0.598022
vt 0.298253 0.596505
vt 0.583333 0.500000
vt 0.567123 0.597265
vt 0.750000 0.500000
vt 0.701747 0.596505
vt 0.461277 0.767664
vt 0.383315 0.766630
vt 0.538809 0.767148
vt 0.616685 0.766630
vt 0.500000 1.000000
vt 0.250000 0.500000
vt 0.416667 0.500000
vt 0.433004 0.598022
vt 0.298253 0.596505
vt 0.583333 0.500000
vt 0.567123 0.597265
vt 0.750000 0.500000
vt 0.701747 0.596505
vt 0.461277 0.767664
vt 0.383315 0.766630
vt 0.538809 0.767148
vt 0.616685 0.766630
vt 0.500000 1.000000
vt 0.375000 0.613252
vt 0.395833 0.613252
vt 0.395833 0.688440
vt 0.375000 0.688440
vt 0.416667 0.613252
vt 0.416667 0.688440
vt 0.437500 0.613252
vt 0.437500 0.688440
vt 0.458333 0.613252
vt 0.458333 0.688440
vt 0.479167 0.613252
vt 0.479167 0.688440
vt 0.500000 0.613252
vt 0.500000 0.688440
vt 0.520833 0.613252
vt 0.520833 0.688440
vt 0.541667 0.613252
vt 0.541667 0.688440
vt 0.562500 0.613252
vt 0.562500 0.688440
vt 0.583333 0.613252
vt 0.583333 0.688440
vt 0.604167 0.613252
vt 0.604167 0.688440
vt 0.625000 0.613252
vt 0.625000 0.688440
vt 0.578125 0.020934
vt 0.635316 0.078125
vt 0.500000 0.150000
vt 0.500000 0.000000
vt 0.421875 0.020934
vt 0.364684 0.078125
vt 0.343750 0.156250
vt 0.364684 0.234375
vt 0.421875 0.291566
vt 0.500000 0.312500
vt 0.578125 0.291566
vt 0.635316 0.234375
vt 0.656250 0.156250
vt 0.635316 0.921875
vt 0.578125 0.979066
vt 0.500000 0.837500
vt 0.500000 1.000000
vt 0.421875 0.979066
vt 0.364684 0.921875
vt 0.343750 0.843750
vt 0.364684 0.765625
vt 0.421875 0.708434
vt 0.500000 0.687500
vt 0.578125 0.708434
vt 0.635316 0.765625
vt 0.656250 0.843750
vt 0.375000 0.372650
vt 0.395833 0.372650
vt 0.416667 0.372650
vt 0.437500 0.372650
vt 0.458333 0.372650
vt 0.479167 0.372650
vt 0.500000 0.372650
vt 0.520833 0.372650
vt 0.541667 0.372650
vt 0.562500 0.372650
vt 0.583333 0.372650
vt 0.604167 0.372650
vt 0.625000 0.372650
vt 0.375000 0.312500
vt 0.395833 0.312500
vt 0.416667 0.312500
vt 0.437500 0.312500
vt 0.458333 0.312500
vt 0.479167 0.312500
vt 0.500000 0.312500
vt 0.520833 0.312500
vt 0.541667 0.312500
vt 0.562500 0.312500
vt 0.583333 0.312500
vt 0.604167 0.312500
vt 0.625000 0.312500
vt 0.635316 0.921875
vt 0.578125 0.979066
vt 0.578125 0.979066
vt 0.635316 0.921875
vt 0.500000 1.000000
vt 0.500000 1.000000
vt 0.421875 0.979066
vt 0.421875 0.979066
vt 0.364684 0.921875
vt 0.364684 0.921875
vt 0.343750 0.843750
vt 0.343750 0.843750
vt 0.364684 0.765625
vt 0.364684 0.765625
vt 0.421875 0.708434
vt 0.421875 0.708434
vt 0.500000 0.687500
vt 0.500000 0.687500
vt 0.578125 0.708434
vt 0.578125 0.708434
vt 0.635316 0.765625
vt 0.635316 0.765625
vt 0.656250 0.843750
vt 0.656250 0.843750
vt 0.250000 0.500000
vt 0.416667 0.500000
vt 0.433004 0.598022
vt 0.298253 0.596505
vt 0.583333 0.500000
vt 0.567123 0.597265
vt 0.750000 0.500000
vt 0.701747 0.596505
vt 0.461277 0.767664
vt 0.383315 0.766630
vt 0.538809 0.767148
vt 0.616685 0.766630
vt 0.500000 1.000000
vn -0.730110 0.121625 0.672418
vn -0.730110 0.121625 0.672418
vn -0.703239 0.299122 0.644966
vn -0.705071 0.290774 0.646782
vn 0.955526 -0.018581 0.294321
vn 0.955526 -0.018581 0.294321
vn 0.944365 -0.096015 0.314572
vn 0.941415 -0.111320 0.318349
vn -0.211714 -0.017984 -0.977166
vn -0.211714 -0.017984 -0.977166
vn -0.235177 -0.109133 -0.965806
vn -0.232312 -0.097604 -0.967732
vn -0.583249 0.618947 0.526046
vn -0.589125 0.608325 0.531857
vn 0.892711 -0.226659 0.389478
vn 0.873171 -0.251152 0.417726
vn -0.335726 -0.250176 -0.908130
vn -0.310108 -0.228330 -0.922875
vn -0.263646 0.939717 0.217768
vn 0.761444 -0.359366 0.539498
vn -0.468231 -0.364046 -0.805128
vn 0.252467 0.172844 0.952043
vn 0.252467 0.172844 0.952043
vn 0.232477 0.405690 0.883952
vn 0.233377 0.398220 0.887106
vn 0.705774 -0.026604 -0.707937
vn 0.705774 -0.026604 -0.707937
vn 0.715614 -0.148348 -0.682562
vn 0.715358 -0.141616 -0.684257
vn -0.962996 -0.025752 -0.268285
vn -0.962996 -0.025752 -0.268285
vn -0.959614 -0.139222 -0.244457
vn -0.958625 -0.149863 -0.242032
vn 0.163860 0.746687 0.644677
vn 0.166292 0.738764 0.653127
vn 0.746217 -0.330647 -0.577783
vn 0.744161 -0.324797 -0.583722
vn -0.934844 -0.323206 -0.146984
vn -0.932828 -0.333462 -0.136510
vn 0.050207 0.969203 0.241092
vn 0.780987 -0.482927 -0.396032
vn -0.871835 -0.488449 0.036362
vn 0.839748 0.180359 -0.512146
vn 0.839748 0.180359 -0.512146
vn 0.777240 0.415507 -0.472495
vn 0.779277 0.410203 -0.473772
vn -0.941743 -0.034722 -0.334537
vn -0.941743 -0.034722 -0.334537
vn -0.914290 -0.195475 -0.354773
vn -0.917884 -0.180752 -0.353296
vn -0.135570 -0.033620 0.990197
vn -0.135570 -0.033620 0.990197
vn -0.109526 -0.178047 0.977908
vn -0.105852 -0.197125 0.974647
vn 0.560971 0.756325 -0.336576
vn 0.566227 0.750909 -0.339886
vn -0.794079 -0.432304 -0.427260
vn -0.806328 -0.417699 -0.418764
vn -0.004592 -0.415668 0.909505
vn 0.012663 -0.435427 0.900135
vn 0.206222 0.971719 -0.115042
vn -0.584211 -0.617486 -0.526696
vn 0.194165 -0.622940 0.757790
vn -0.262219 0.159142 -0.951796
vn -0.262219 0.159142 -0.951796
vn -0.244019 0.378411 -0.892894
vn -0.244913 0.370696 -0.895881
vn -0.698976 -0.024439 0.714727
vn -0.698976 -0.024439 0.714727
vn -0.710101 -0.134154 0.691201
vn -0.710092 -0.134005 0.691239
vn 0.965580 -0.023657 0.259029
vn 0.965580 -0.023657 0.259029
vn 0.963106 -0.131652 0.234723
vn 0.962781 -0.135700 0.233748
vn -0.177856 0.718262 -0.672657
vn -0.180381 0.709678 -0.681043
vn -0.745626 -0.303048 0.593468
vn -0.746724 -0.305621 0.590762
vn 0.943161 -0.304155 0.133929
vn 0.942921 -0.305569 0.132395
vn -0.056857 0.963807 -0.260467
vn -0.791698 -0.451918 0.411078
vn 0.888153 -0.457279 -0.045597
vn 0.866026 0.000000 -0.500000
vn 0.500000 0.000000 -0.866026
vn 0.500000 0.000000 -0.866026
vn 0.866026 0.000000 -0.500000
vn -0.000000 0.000000 -1.000000
vn -0.000000 0.000000 -1.000000
vn -0.500000 0.000000 -0.866025
vn -0.500000 0.000000 -0.866025
vn -0.866025 0.000000 -0.500000
vn -0.866025 0.000000 -0.500000
vn -1.000000 0.000000 0.000000
vn -1.000000 0.000000 0.000000
vn -0.866025 0.000000 0.500000
vn -0.866025 0.000000 0.500000
vn -0.500000 0.000000 0.866025
vn -0.500000 0.000000 0.866025
vn -0.000000 0.000000 1.000000
vn -0.000000 0.000000 1.000000
vn 0.500000 0.000000 0.866026
vn 0.500000 0.000000 0.866026
vn 0.866026 0.000000 0.500000
vn 0.866026 0.000000 0.500000
vn 1.000000 0.000000 0.000000
vn 1.000000 0.000000 0.000000
vn 0.203315 -0.913593 -0.352151
vn 0.352151 -0.913593 -0.203315
vn 0.000000 -1.000000 0.000000
vn -0.000000 -0.913593 -0.406629
vn -0.203315 -0.913593 -0.352151
vn -0.352151 -0.913593 -0.203315
vn -0.406629 -0.913593 0.000000
vn -0.352151 -0.913593 0.203315
vn -0.203315 -0.913593 0.352151
vn -0.000000 -0.913593 0.406629
vn 0.203315 -0.913593 0.352151
vn 0.352151 -0.913593 0.203315
vn 0.406629 -0.913593 0.000000
vn 0.000000 1.000000 0.000000
vn 0.000000 1.000000 0.000000
vn 0.000000 1.000000 -0.000000
vn 0.000000 1.000000 0.000000
vn 0.000000 1.000000 0.000000
vn 0.000000 1.000000 0.000000
vn 0.000000 1.000000 0.000000
vn 0.000000 1.000000 -0.000000
vn 0.000000 1.000000 -0.000000
vn 0.000000 1.000000 0.000000
vn 0.000000 1.000000 0.000000
vn 0.000000 1.000000 0.000000
vn 0.000000 1.000000 0.000000
vn 0.865810 0.022313 -0.499876
vn 0.499875 0.022313 -0.865810
vn 0.475759 0.307593 -0.824039
vn 0.824039 0.307593 -0.475759
vn -0.000000 0.022313 -0.999751
vn -0.000000 0.307593 -0.951518
vn -0.499875 0.022313 -0.865810
vn -0.475759 0.307593 -0.824039
vn -0.865810 0.022313 -0.499876
vn -0.824039 0.307593 -0.475759
vn -0.999751 0.022313 0.000000
vn -0.951518 0.307593 0.000000
vn -0.865810 0.022313 0.499876
vn -0.824039 0.307593 0.475759
vn -0.499875 0.022313 0.865810
vn -0.475759 0.307593 0.824039
vn -0.000000 0.022313 0.999751
vn -0.000000 0.307593 0.951518
vn 0.499875 0.022313 0.865810
vn 0.475759 0.307593 0.824039
vn 0.865810 0.022313 0.499876
vn 0.824039 0.307593 0.475759
vn 0.999751 0.022313 0.000000
vn 0.951518 0.307593 0.000000
vn 0.000000 1.000000 0.000000
vn 0.000000 1.000000 -0.000000
vn 0.000000 1.000000 -0.000000
vn 0.000000 1.000000 0.000000
vn 0.000000 1.000000 -0.000000
vn 0.000000 1.000000 -0.000000
vn 0.000000 1.000000 -0.000000
vn 0.000000 1.000000 -0.000000
vn 0.000000 1.000000 -0.000000
vn 0.000000 1.000000 -0.000000
vn 0.000000 1.000000 -0.000000
vn 0.000000 1.000000 -0.000000
vn 0.000000 1.000000 -0.000000
vn 0.000000 1.000000 -0.000000
vn 0.000000 1.000000 0.000000
vn 0.000000 1.000000 0.000000
vn 0.000000 1.000000 0.000000
vn 0.000000 1.000000 0.000000
vn 0.000000 1.000000 0.000000
vn 0.000000 1.000000 0.000000
vn 0.000000 1.000000 0.000000
vn 0.000000 1.000000 0.000000
vn 0.000000 1.000000 0.000000
vn 0.000000 1.000000 0.000000
vn -0.866025 0.000000 0.500000
vn -0.500000 0.000000 0.866026
vn -0.500000 0.000000 0.866026
vn -0.866025 0.000000 0.500000
vn -0.000000 0.000000 1.000000
vn -0.000000 0.000000 1.000000
vn 0.500000 0.000000 0.866026
vn 0.500000 0.000000 0.866026
vn 0.866025 0.000000 0.500000
vn 0.866025 0.000000 0.500000
vn 1.000000 0.000000 0.000000
vn 1.000000 0.000000 0.000000
vn 0.866025 0.000000 -0.500000
vn 0.866025 0.000000 -0.500000
vn 0.500000 0.000000 -0.866026
vn 0.500000 0.000000 -0.866026
vn -0.000000 0.000000 -1.000000
vn -0.000000 0.000000 -1.000000
vn -0.500000 0.000000 -0.866026
vn -0.500000 0.000000 -0.866026
vn -0.866025 0.000000 -0.500000
vn -0.866025 0.000000 -0.500000
vn -1.000000 0.000000 0.000000
vn -1.000000 0.000000 0.000000
vn -0.969463 0.245218 0.003198
vn -0.969463 0.245218 0.003198
vn -0.823041 0.567983 0.000094
vn -0.829549 0.558434 0.000197
vn 0.504981 -0.065165 0.860667
vn 0.504981 -0.065165 0.860667
vn 0.449101 -0.260838 0.854559
vn 0.462672 -0.219740 0.858865
vn 0.503689 -0.063743 -0.861530
vn 0.503689 -0.063743 -0.861530
vn 0.463678 -0.215877 -0.859302
vn 0.448578 -0.263062 -0.854153
vn -0.445712 0.895153 -0.006479
vn -0.458864 0.888485 -0.006220
vn 0.276656 -0.481438 0.831672
vn 0.304418 -0.463320 0.832265
vn 0.311092 -0.462016 -0.830520
vn 0.275319 -0.486286 -0.829292
vn -0.009394 0.999865 -0.013476
vn 0.050638 -0.603822 0.795510
vn 0.051306 -0.611787 -0.789357
usemtl lambert10SG
f 1/1/1 2/2/2 6/8/3 5/7/4
f 2/2/5 3/3/6 7/9/7 6/8/8
f 3/3/9 1/4/10 5/6/11 7/9/12
f 5/7/4 6/8/3 9/12/13 8/11/14
f 6/8/8 7/9/7 10/13/15 9/12/16
f 7/9/12 5/6/11 8/10/17 10/13/18
f 8/11/14 9/12/13 4/5/19
f 9/12/16 10/13/15 4/5/20
f 10/13/18 8/10/17 4/5/21
f 11/14/22 12/15/23 16/16/24 15/17/25
f 12/15/26 13/18/27 17/19/28 16/16/29
f 13/18/30 11/20/31 15/21/32 17/19/33
f 15/17/25 16/16/24 19/22/34 18/23/35
f 16/16/29 17/19/28 20/24/36 19/22/37
f 17/19/33 15/21/32 18/25/38 20/24/39
f 18/23/35 19/22/34 14/26/40
f 19/22/37 20/24/36 14/26/41
f 20/24/39 18/25/38 14/26/42
f 21/27/43 22/28/44 26/29/45 25/30/46
f 22/28/47 23/31/48 27/32/49 26/29/50
f 23/31/51 21/33/52 25/34/53 27/32/54
f 25/30/46 26/29/45 29/35/55 28/36/56
f 26/29/50 27/32/49 30/37/57 29/35/58
f 27/32/54 25/34/53 28/38/59 30/37/60
f 28/36/56 29/35/55 24/39/61
f 29/35/58 30/37/57 24/39/62
f 30/37/60 28/38/59 24/39/63
f 31/40/64 32/41/65 36/42/66 35/43/67
f 32/41/68 33/44/69 37/45/70 36/42/71
f 33/44/72 31/46/73 35/47/74 37/45/75
f 35/43/67 36/42/66 39/48/76 38/49/77
f 36/42/71 37/45/70 40/50/78 39/48/79
f 37/45/75 35/47/74 38/51/80 40/50/81
f 38/49/77 39/48/76 34/52/82
f 39/48/79 40/50/78 34/52/83
f 40/50/81 38/51/80 34/52/84
usemtl lambert11SG
f 66/53/85 67/54/86 54/55/87 53/56/88
f 67/54/86 68/57/89 55/58/90 54/55/87
f 68/57/89 69/59/91 56/60/92 55/58/90
f 69/59/91 70/61/93 57/62/94 56/60/92
f 70/61/93 71/63/95 58/64/96 57/62/94
f 71/63/95 72/65/97 59/66/98 58/64/96
f 72/65/97 73/67/99 60/68/100 59/66/98
f 73/67/99 74/69/101 61/70/102 60/68/100
f 74/69/101 75/71/103 62/72/104 61/70/102
f 75/71/103 76/73/105 63/74/106 62/72/104
f 76/73/105 77/75/107 64/76/108 63/74/106
f 77/75/107 66/77/85 53/78/88 64/76/108
f 42/79/109 41/80/110 65/81/111
f 43/82/112 42/79/109 65/81/111
f 44/83/113 43/82/112 65/81/111
f 45/84/114 44/83/113 65/81/111
f 46/85/115 45/84/114 65/81/111
f 47/86/116 46/85/115 65/81/111
f 48/87/117 47/86/116 65/81/111
f 49/88/118 48/87/117 65/81/111
f 50/89/119 49/88/118 65/81/111
f 51/90/120 50/89/119 65/81/111
f 52/91/121 51/90/120 65/81/111
f 41/80/110 52/91/121 65/81/111
usemtl lambert9SG
f 102/92/122 103/93/123 104/94/124
f 103/93/123 105/95/125 104/94/124
f 105/95/125 106/96/126 104/94/124
f 106/96/126 107/97/127 104/94/124
f 107/97/127 108/98/128 104/94/124
f 108/98/128 109/99/129 104/94/124
f 109/99/129 110/100/130 104/94/124
f 110/100/130 111/101/131 104/94/124
f 111/101/131 112/102/132 104/94/124
f 112/102/132 113/103/133 104/94/124
f 113/103/133 114/104/134 104/94/124
f 114/104/134 102/92/122 104/94/124
usemtl lambert11SG
f 78/105/135 79/106/136 67/54/137 66/53/138
f 79/106/136 80/107/139 68/57/140 67/54/137
f 80/107/139 81/108/141 69/59/142 68/57/140
f 81/108/141 82/109/143 70/61/144 69/59/142
f 82/109/143 83/110/145 71/63/146 70/61/144
f 83/110/145 84/111/147 72/65/148 71/63/146
f 84/111/147 85/112/149 73/67/150 72/65/148
f 85/112/149 86/113/151 74/69/152 73/67/150
f 86/113/151 87/114/153 75/71/154 74/69/152
f 87/114/153 88/115/155 76/73/156 75/71/154
f 88/115/155 89/116/157 77/75/158 76/73/156
f 89/116/157 78/117/135 66/77/138 77/75/158
f 41/118/110 42/119/109 79/106/136 78/105/135
f 42/119/109 43/120/112 80/107/139 79/106/136
f 43/120/112 44/121/113 81/108/141 80/107/139
f 44/121/113 45/122/114 82/109/143 81/108/141
f 45/122/114 46/123/115 83/110/145 82/109/143
f 46/123/115 47/124/116 84/111/147 83/110/145
f 47/124/116 48/125/117 85/112/149 84/111/147
f 48/125/117 49/126/118 86/113/151 85/112/149
f 49/126/118 50/127/119 87/114/153 86/113/151
f 50/127/119 51/128/120 88/115/155 87/114/153
f 51/128/120 52/129/121 89/116/157 88/115/155
f 52/129/121 41/130/110 78/117/135 89/116/157
f 53/131/159 54/132/160 91/133/161 90/134/162
f 54/132/160 55/135/163 92/136/164 91/133/161
f 55/135/163 56/137/165 93/138/166 92/136/164
f 56/137/165 57/139/167 94/140/168 93/138/166
f 57/139/167 58/141/169 95/142/170 94/140/168
f 58/141/169 59/143/171 96/144/172 95/142/170
f 59/143/171 60/145/173 97/146/174 96/144/172
f 60/145/173 61/147/175 98/148/176 97/146/174
f 61/147/175 62/149/177 99/150/178 98/148/176
f 62/149/177 63/151/179 100/152/180 99/150/178
f 63/151/179 64/153/181 101/154/182 100/152/180
f 64/153/181 53/131/159 90/134/162 101/154/182
f 90/134/183 91/133/184 103/93/185 102/92/186
f 91/133/184 92/136/187 105/95/188 103/93/185
f 92/136/187 93/138/189 106/96/190 105/95/188
f 93/138/189 94/140/191 107/97/192 106/96/190
f 94/140/191 95/142/193 108/98/194 107/97/192
f 95/142/193 96/144/195 109/99/196 108/98/194
f 96/144/195 97/146/197 110/100/198 109/99/196
f 97/146/197 98/148/199 111/101/200 110/100/198
f 98/148/199 99/150/201 112/102/202 111/101/200
f 99/150/201 100/152/203 113/103/204 112/102/202
f 100/152/203 101/154/205 114/104/206 113/103/204
f 101/154/205 90/134/183 102/92/186 114/104/206
usemtl lambert10SG
f 115/155/207 116/156/208 120/157/209 119/158/210
f 116/156/211 117/159/212 121/160/213 120/157/214
f 117/159/215 115/161/216 119/162/217 121/160/218
f 119/158/210 120/157/209 123/163/219 122/164/220
f 120/157/214 121/160/213 124/165/221 123/163/222
f 121/160/218 119/162/217 122/166/223 124/165/224
f 122/164/220 123/163/219 118/167/225
f 123/163/222 124/165/221 118/167/226
f 124/165/224 122/166/223 118/167/227
