# This file uses centimeters as units for non-parametric coordinates.

mtllib rod.mtl
v -0.118309 0.219404 0.089373
v -0.004016 0.219404 0.089373
v 0.053130 0.120423 0.089373
v -0.004016 0.021443 0.089373
v -0.118309 0.021443 0.089373
v -0.175456 0.120423 0.089373
v -0.118309 0.219404 -0.089373
v -0.004016 0.219404 -0.089373
v 0.053130 0.120423 -0.089373
v -0.004016 0.021443 -0.089373
v -0.118309 0.021443 -0.089373
v -0.175456 0.120423 -0.089373
v -0.061163 0.120423 0.089373
v -0.061163 0.120423 -0.089373
v -0.028931 -0.148597 0.048114
v 0.026625 -0.148597 0.048114
v 0.054404 -0.148597 0.000000
v 0.026625 -0.148597 -0.048114
v -0.028931 -0.148597 -0.048114
v -0.056710 -0.148597 -0.000000
v -0.027279 0.137107 0.046078
v 0.025928 0.137127 0.046078
v 0.052531 0.137136 0.000000
v 0.025928 0.137127 -0.046078
v -0.027279 0.137107 -0.046078
v -0.053882 0.137098 0.000000
v -0.008698 0.422670 0.041893
v 0.039669 0.423458 0.041893
v 0.063853 0.423852 0.000000
v 0.039669 0.423458 -0.041893
v -0.008698 0.422670 -0.041893
v -0.032881 0.422276 0.000000
v 0.016888 0.709499 0.036319
v 0.058766 0.711724 0.036319
v 0.079705 0.712836 0.000000
v 0.058766 0.711724 -0.036319
v 0.016888 0.709499 -0.036319
v -0.004051 0.708387 0.000000
v 0.027930 0.998824 0.030370
v 0.062809 1.002465 0.030370
v 0.080248 1.004285 0.000000
v 0.062809 1.002465 -0.030370
v 0.027930 0.998824 -0.030370
v 0.010490 0.997004 0.000000
v 0.010089 1.289084 0.025128
v 0.038735 1.293701 0.025128
v 0.053058 1.296009 0.000000
v 0.038735 1.293701 -0.025128
v 0.010089 1.289084 -0.025128
v -0.004234 1.286775 0.000000
v -0.039908 1.576547 0.021546
v -0.015577 1.581741 0.021546
v -0.003411 1.584338 0.000000
v -0.015577 1.581741 -0.021546
v -0.039908 1.576547 -0.021546
v -0.052073 1.573949 0.000000
v -0.113762 1.858359 0.020275
v -0.091058 1.864070 0.020275
v -0.079706 1.866925 0.000000
v -0.091058 1.864070 -0.020275
v -0.113762 1.858359 -0.020275
v -0.125114 1.855503 -0.000000
v -0.001153 -0.148597 0.000000
v -0.192903 2.176200 -0.000000
vt 0.578125 0.020934
vt 0.421875 0.020934
vt 0.343750 0.156250
vt 0.421875 0.291566
vt 0.578125 0.291566
vt 0.656250 0.156250
vt 0.375000 0.312500
vt 0.416667 0.312500
vt 0.458333 0.312500
vt 0.500000 0.312500
vt 0.541667 0.312500
vt 0.583333 0.312500
vt 0.625000 0.312500
vt 0.375000 0.688440
vt 0.416667 0.688440
vt 0.458333 0.688440
vt 0.500000 0.688440
vt 0.541667 0.688440
vt 0.583333 0.688440
vt 0.625000 0.688440
vt 0.578125 0.708434
vt 0.421875 0.708434
vt 0.343750 0.843750
vt 0.421875 0.979066
vt 0.578125 0.979066
vt 0.656250 0.843750
vt 0.500000 0.150000
vt 0.500000 0.837500
vt 0.375000 0.312500
vt 0.416667 0.312500
vt 0.416667 0.366206
vt 0.375000 0.366206
vt 0.458333 0.312500
vt 0.458333 0.366206
vt 0.500000 0.312500
vt 0.500000 0.366206
vt 0.541667 0.312500
vt 0.541667 0.366206
vt 0.583333 0.312500
vt 0.583333 0.366206
vt 0.625000 0.312500
vt 0.625000 0.366206
vt 0.416667 0.419911
vt 0.375000 0.419911
vt 0.458333 0.419911
vt 0.500000 0.419911
vt 0.541667 0.419911
vt 0.583333 0.419911
vt 0.625000 0.419911
vt 0.416667 0.473617
vt 0.375000 0.473617
vt 0.458333 0.473617
vt 0.500000 0.473617
vt 0.541667 0.473617
vt 0.583333 0.473617
vt 0.625000 0.473617
vt 0.416667 0.527323
vt 0.375000 0.527323
vt 0.458333 0.527323
vt 0.500000 0.527323
vt 0.541667 0.527323
vt 0.583333 0.527323
vt 0.625000 0.527323
vt 0.416667 0.581028
vt 0.375000 0.581028
vt 0.458333 0.581028
vt 0.500000 0.581028
vt 0.541667 0.581028
vt 0.583333 0.581028
vt 0.625000 0.581028
vt 0.416667 0.634734
vt 0.375000 0.634734
vt 0.458333 0.634734
vt 0.500000 0.634734
vt 0.541667 0.634734
vt 0.583333 0.634734
vt 0.625000 0.634734
vt 0.416667 0.688440
vt 0.375000 0.688440
vt 0.458333 0.688440
vt 0.500000 0.688440
vt 0.541667 0.688440
vt 0.583333 0.688440
vt 0.625000 0.688440
vt 0.421875 0.020934
vt 0.578125 0.020934
vt 0.500000 0.150000
vt 0.343750 0.156250
vt 0.421875 0.291566
vt 0.578125 0.291566
vt 0.656250 0.156250
vt 0.578125 0.979066
vt 0.421875 0.979066
vt 0.500000 0.837500
vt 0.343750 0.843750
vt 0.421875 0.708434
vt 0.578125 0.708434
vt 0.656250 0.843750
vn -0.500000 0.866025 -0.000000
vn 0.500000 0.866026 0.000000
vn 0.500000 0.866026 0.000000
vn -0.500000 0.866025 -0.000000
vn 1.000000 0.000000 -0.000000
vn 1.000000 0.000000 -0.000000
vn 0.500000 -0.866025 -0.000000
vn 0.500000 -0.866025 -0.000000
vn -0.500000 -0.866025 -0.000000
vn -0.500000 -0.866025 -0.000000
vn -1.000000 0.000000 -0.000000
vn -1.000000 -0.000000 0.000000
vn -0.000000 0.000000 1.000000
vn -0.000000 0.000000 1.000000
vn -0.000000 0.000000 1.000000
vn -0.000000 -0.000000 1.000000
vn -0.000000 -0.000000 1.000000
vn -0.000000 -0.000000 1.000000
vn -0.000000 0.000000 1.000000
vn 0.000000 0.000000 -1.000000
vn 0.000000 0.000000 -1.000000
vn -0.000000 -0.000000 -1.000000
vn -0.000000 0.000000 -1.000000
vn -0.000000 -0.000000 -1.000000
vn 0.000000 -0.000000 -1.000000
vn 0.000000 0.000000 -1.000000
vn -0.500368 0.009063 0.865766
vn 0.499598 0.007391 0.866226
vn 0.494015 -0.001301 0.869453
vn -0.506027 0.026729 0.862104
vn 0.999979 0.006555 0.000000
vn 0.999874 -0.015849 0.000000
vn 0.499599 0.007391 -0.866226
vn 0.494015 -0.001301 -0.869452
vn -0.500368 0.009063 -0.865766
vn -0.506027 0.026729 -0.862104
vn -0.999951 0.009898 -0.000000
vn -0.999193 0.040173 -0.000000
vn 0.499729 -0.013454 0.866077
vn -0.500908 0.052997 0.863877
vn 0.998898 -0.046930 0.000000
vn 0.499729 -0.013454 -0.866077
vn -0.500908 0.052997 -0.863877
vn -0.996334 0.085553 -0.000000
vn 0.509857 -0.004785 0.860246
vn -0.492718 0.049368 0.868788
vn 0.999556 -0.029787 0.000000
vn 0.509858 -0.004785 -0.860246
vn -0.492718 0.049368 -0.868788
vn -0.996951 0.078033 -0.000000
vn 0.513722 0.031245 0.857388
vn -0.488066 0.013059 0.872709
vn 0.999114 0.042098 0.000000
vn 0.513722 0.031245 -0.857387
vn -0.488066 0.013059 -0.872709
vn -0.999983 0.005771 -0.000000
vn 0.508161 0.079283 0.857605
vn -0.484362 -0.041078 0.873903
vn 0.990335 0.138699 0.000000
vn 0.508161 0.079283 -0.857605
vn -0.484362 -0.041078 -0.873903
vn -0.994780 -0.102047 0.000000
vn 0.496063 0.119322 0.860049
vn -0.480305 -0.095608 0.871875
vn 0.974486 0.224447 0.000000
vn 0.496062 0.119322 -0.860049
vn -0.480305 -0.095608 -0.871875
vn -0.978657 -0.205501 0.000001
vn 0.476737 0.158872 0.864570
vn -0.488177 -0.103796 0.866551
vn 0.957176 0.289507 -0.000000
vn 0.476737 0.158872 -0.864570
vn -0.488177 -0.103795 -0.866551
vn -0.971848 -0.235609 0.000001
vn 0.000000 -1.000000 -0.000000
vn 0.000000 -1.000000 -0.000000
vn 0.000000 -1.000000 -0.000000
vn 0.000000 -1.000000 -0.000000
vn 0.000000 -1.000000 -0.000000
vn 0.000000 -1.000000 -0.000000
vn 0.000000 -1.000000 -0.000000
vn -0.260010 0.965606 -0.000000
usemtl lambert9SG
f 1/7/1 2/8/2 8/15/3 7/14/4
f 2/8/2 3/9/5 9/16/6 8/15/3
f 3/9/5 4/10/7 10/17/8 9/16/6
f 4/10/7 5/11/9 11/18/10 10/17/8
f 5/11/9 6/12/11 12/19/12 11/18/10
f 6/12/11 1/13/1 7/20/4 12/19/12
usemtl lambert10SG
f 2/2/13 1/1/14 13/27/15
f 3/3/16 2/2/13 13/27/15
f 4/4/17 3/3/16 13/27/15
f 5/5/18 4/4/17 13/27/15
f 6/6/19 5/5/18 13/27/15
f 1/1/14 6/6/19 13/27/15
f 7/25/20 8/24/21 14/28/22
f 8/24/21 9/23/23 14/28/22
f 9/23/23 10/22/24 14/28/22
f 10/22/24 11/21/25 14/28/22
f 11/21/25 12/26/26 14/28/22
f 12/26/26 7/25/20 14/28/22
usemtl lambert9SG
f 15/29/27 16/30/28 22/31/29 21/32/30
f 16/30/28 17/33/31 23/34/32 22/31/29
f 17/33/31 18/35/33 24/36/34 23/34/32
f 18/35/33 19/37/35 25/38/36 24/36/34
f 19/37/35 20/39/37 26/40/38 25/38/36
f 20/39/37 15/41/27 21/42/30 26/40/38
f 21/32/30 22/31/29 28/43/39 27/44/40
f 22/31/29 23/34/32 29/45/41 28/43/39
f 23/34/32 24/36/34 30/46/42 29/45/41
f 24/36/34 25/38/36 31/47/43 30/46/42
f 25/38/36 26/40/38 32/48/44 31/47/43
f 26/40/38 21/42/30 27/49/40 32/48/44
usemtl lambert10SG
f 27/44/40 28/43/39 34/50/45 33/51/46
f 28/43/39 29/45/41 35/52/47 34/50/45
f 29/45/41 30/46/42 36/53/48 35/52/47
f 30/46/42 31/47/43 37/54/49 36/53/48
f 31/47/43 32/48/44 38/55/50 37/54/49
f 32/48/44 27/49/40 33/56/46 38/55/50
usemtl lambert9SG
f 33/51/46 34/50/45 40/57/51 39/58/52
f 34/50/45 35/52/47 41/59/53 40/57/51
f 35/52/47 36/53/48 42/60/54 41/59/53
f 36/53/48 37/54/49 43/61/55 42/60/54
f 37/54/49 38/55/50 44/62/56 43/61/55
f 38/55/50 33/56/46 39/63/52 44/62/56
usemtl lambert10SG
f 39/58/52 40/57/51 46/64/57 45/65/58
f 40/57/51 41/59/53 47/66/59 46/64/57
f 41/59/53 42/60/54 48/67/60 47/66/59
f 42/60/54 43/61/55 49/68/61 48/67/60
f 43/61/55 44/62/56 50/69/62 49/68/61
f 44/62/56 39/63/52 45/70/58 50/69/62
usemtl lambert9SG
f 45/65/58 46/64/57 52/71/63 51/72/64
f 46/64/57 47/66/59 53/73/65 52/71/63
f 47/66/59 48/67/60 54/74/66 53/73/65
f 48/67/60 49/68/61 55/75/67 54/74/66
f 49/68/61 50/69/62 56/76/68 55/75/67
f 50/69/62 45/70/58 51/77/64 56/76/68
usemtl lambert10SG
f 51/72/64 52/71/63 58/78/69 57/79/70
f 52/71/63 53/73/65 59/80/71 58/78/69
f 53/73/65 54/74/66 60/81/72 59/80/71
f 54/74/66 55/75/67 61/82/73 60/81/72
f 55/75/67 56/76/68 62/83/74 61/82/73
f 56/76/68 51/77/64 57/84/70 62/83/74
usemtl lambert9SG
f 16/85/75 15/86/76 63/87/77
f 17/88/78 16/85/75 63/87/77
f 18/89/79 17/88/78 63/87/77
f 19/90/80 18/89/79 63/87/77
f 20/91/81 19/90/80 63/87/77
f 15/86/76 20/91/81 63/87/77
f 57/92/70 58/93/69 64/94/82
f 58/93/69 59/95/71 64/94/82
f 59/95/71 60/96/72 64/94/82
f 60/96/72 61/97/73 64/94/82
f 61/97/73 62/98/74 64/94/82
f 62/98/74 57/92/70 64/94/82
