# This file uses centimeters as units for non-parametric coordinates.

v 3.991100 -0.000001 -2.304259
v 2.304261 -0.000001 -3.991096
v 0.000000 -0.000001 -4.608520
v -2.304261 -0.000001 -3.991096
v -3.991098 -0.000001 -2.304259
v -3.991098 -0.000001 2.304266
v -2.304261 -0.000001 3.991102
v 0.000000 -0.000001 4.608522
v 2.304261 -0.000001 3.991102
v 3.991100 -0.000001 2.304266
v 4.608522 -0.000001 0.000003
v 2.544195 15.709059 -1.468892
v 1.468894 15.709059 -2.544195
v 0.000000 15.709059 -2.937784
v -1.468892 15.709059 -2.544195
v -2.544195 15.709059 -1.468892
v -2.937784 15.709059 0.000003
v -2.544195 15.709059 1.468894
v -1.468892 15.709059 2.544199
v 0.000000 15.709059 2.937785
v 1.468894 15.709059 2.544199
v 2.544195 15.709059 1.468894
v 2.937785 15.709059 0.000003
v 3.557029 3.315738 -2.053648
v 2.053650 4.712717 -3.557025
v 0.000000 4.712717 -4.107299
v -2.053650 4.712717 -3.557025
v -3.557028 3.315738 -2.053648
v -3.977395 4.537176 -0.034809
v -3.557028 3.315738 2.053650
v -2.053650 4.712717 3.557029
v 0.000000 4.712717 4.107302
v 2.053650 4.712717 3.557029
v 3.557029 3.315738 2.053650
v 4.107300 3.315738 0.000003
v -5.741234 -0.000001 -2.164291
v -5.728363 4.356945 -0.032692
v -5.333530 3.209702 -1.928902
v -5.741234 -0.000001 2.164295
v -5.333530 3.209702 1.928904
v -5.375031 -0.000001 -1.350906
v -5.738456 -0.000001 0.000781
v -5.404358 3.545969 -0.026814
v -5.069279 2.762820 -1.153859
v -5.371223 -0.000001 1.351722
v -5.067794 2.755804 1.155469
vt 0.823559 0.211072
vt 0.898976 0.300000
vt 0.892632 1.000000
vt 0.820233 1.000000
vt 0.969705 1.000000
vt 0.063047 0.300000
vt 0.054271 1.000000
vt 0.154247 0.211072
vt 0.148348 1.000000
vt 0.248392 0.288825
vt 0.250016 1.000000
vt 0.345785 0.211072
vt 0.351684 1.000000
vt 0.436985 0.300000
vt 0.445761 1.000000
vt 0.521824 0.300000
vt 0.530326 1.000000
vt 0.601056 0.300000
vt 0.607400 1.000000
vt 0.676473 0.211072
vt 0.679799 1.000000
vt 0.750016 0.211072
vt 0.750016 1.000000
vt 0.824519 0.000000
vt 0.900778 0.000000
vt 0.065378 0.000000
vt 0.155756 0.000000
vt 0.206428 0.000000
vt 0.250040 0.000000
vt 0.249134 0.225728
vt 0.210092 0.175874
vt 0.293662 0.000000
vt 0.290006 0.175428
vt 0.344276 0.000000
vt 0.434653 0.000000
vt 0.519477 0.000000
vt 0.599254 0.000000
vt 0.675512 0.000000
vt 0.750016 0.000000
vt 0.188823 0.204322
vt 0.249008 0.277352
vt 0.186971 0.000000
vt 0.311208 0.204322
vt 0.313061 0.000000
vt 0.978208 0.300000
vt 1.063047 0.300000
vt 1.054271 1.000000
vt 0.980554 0.000000
vt 1.065378 0.000000
vn 0.874083 0.108479 -0.473509
vn 0.520807 0.106010 -0.847067
vn 0.520797 0.103020 -0.847441
vn 0.874472 0.096159 -0.475450
vn -0.000000 0.105759 -0.994392
vn -0.000000 0.105758 -0.994392
vn -0.520807 0.106010 -0.847067
vn -0.520797 0.103020 -0.847441
vn -0.839034 0.102822 -0.534276
vn -0.870664 0.096162 -0.482387
vn -0.995644 0.093230 -0.001407
vn -0.995644 0.093226 0.000984
vn -0.841660 0.102517 0.530188
vn -0.873111 0.095807 0.478014
vn -0.520807 0.106010 0.847067
vn -0.520797 0.103021 0.847441
vn 0.000000 0.105759 0.994392
vn -0.000000 0.105759 0.994392
vn 0.520807 0.106010 0.847067
vn 0.520797 0.103021 0.847441
vn 0.874083 0.108479 0.473509
vn 0.874472 0.096159 0.475450
vn 0.994074 0.108704 -0.000000
vn 0.995577 0.093949 -0.000000
vn 0.855609 0.134772 -0.499769
vn 0.493010 0.114637 -0.862438
vn 0.000000 0.105759 -0.994392
vn -0.493010 0.114637 -0.862438
vn -0.727736 0.119657 -0.675339
vn -0.948187 0.104228 -0.300129
vn -0.993874 0.110443 0.004052
vn -0.993883 0.110423 -0.001571
vn -0.948187 0.104228 -0.300129
vn -0.948952 0.106547 0.296879
vn -0.948952 0.106547 0.296879
vn -0.727736 0.119657 0.675338
vn -0.493010 0.114637 0.862438
vn 0.000000 0.105759 0.994392
vn 0.493010 0.114637 0.862438
vn 0.855609 0.134772 0.499769
vn 0.988767 0.149466 -0.000000
vn -0.102393 0.994743 -0.001363
vn -0.090661 0.446250 -0.890304
vn -0.090551 0.441188 -0.892834
vn -0.102389 0.994743 0.001716
vn -0.077096 0.083938 -0.993484
vn -0.077096 0.083938 -0.993484
vn -0.077097 0.083939 0.993484
vn -0.090929 0.458004 0.884287
vn -0.090789 0.451289 0.887747
vn -0.077097 0.083939 0.993484
vn -0.914582 -0.404400 0.000185
vn -0.913916 -0.404175 0.037422
vn -0.913916 -0.404175 0.037422
vn -0.914583 -0.404399 -0.000074
vn -0.918274 0.081642 0.387436
vn -0.918274 0.081642 0.387436
vn -0.918274 0.081642 0.387436
vn -0.918274 0.081642 0.387436
vn -0.916928 0.081032 -0.390739
vn -0.916928 0.081032 -0.390739
vn -0.916928 0.081032 -0.390739
vn -0.916928 0.081032 -0.390739
vn -0.914002 -0.404075 -0.036376
vn -0.914002 -0.404075 -0.036376
f 24/1/1 25/2/2 13/3/3 12/4/4
f 25/2/2 26/45/5 14/5/6 13/3/3
f 26/45/5 27/46/7 15/47/8 14/5/6
f 27/6/7 28/8/9 16/9/10 15/7/8
f 28/8/9 29/10/11 17/11/12 16/9/10
f 29/10/11 30/12/13 18/13/14 17/11/12
f 30/12/13 31/14/15 19/15/16 18/13/14
f 31/14/15 32/16/17 20/17/18 19/15/16
f 32/16/17 33/18/19 21/19/20 20/17/18
f 33/18/19 34/20/21 22/21/22 21/19/20
f 34/20/21 35/22/23 23/23/24 22/21/22
f 35/22/23 24/1/1 12/4/4 23/23/24
f 1/24/25 2/25/26 25/2/2 24/1/1
f 2/25/26 3/48/27 26/45/5 25/2/2
f 3/48/27 4/49/28 27/46/7 26/45/5
f 4/26/28 5/27/29 28/8/9 27/6/7
f 41/28/30 42/29/31 43/30/32 44/31/33
f 42/29/31 45/32/34 46/33/35 43/30/32
f 6/34/36 7/35/37 31/14/15 30/12/13
f 7/35/37 8/36/38 32/16/17 31/14/15
f 8/36/38 9/37/39 33/18/19 32/16/17
f 9/37/39 10/38/40 34/20/21 33/18/19
f 10/38/40 11/39/41 35/22/23 34/20/21
f 11/39/41 1/24/25 24/1/1 35/22/23
f 29/10/42 28/8/43 38/40/44 37/41/45
f 28/8/43 5/27/46 36/42/47 38/40/44
f 6/34/48 30/12/49 40/43/50 39/44/51
f 30/12/49 29/10/42 37/41/45 40/43/50
f 37/41/52 38/40/53 44/31/54 43/30/55
f 38/40/56 36/42/57 41/28/58 44/31/59
f 39/44/60 40/43/61 46/33/62 45/32/63
f 40/43/64 37/41/52 43/30/55 46/33/65
